<svg xmlns="http://www.w3.org/2000/svg" width="735" height="1469" viewBox="0 0 735 1469" fill="none">
      <path d="M518.101 12.8C464.001 4 402.401 0 365.401 0C328.401 0 266.801 4 212.601 12.8C206.501 13.8 202.201 19.9 203.201 26.5C204.101 33 209.901 37.5 216.001 36.5C257.001 29.9 302.201 26 337.401 24.6H393.401C428.501 26 473.701 29.9 514.701 36.5C515.301 36.6333 515.868 36.7 516.401 36.7C521.901 36.7 526.701 32.4 527.601 26.5C528.501 19.9 524.301 13.8 518.101 12.8Z" fill="#282F3A"/>
      <path d="M455.5 20.0996H478.3V53.2996H455.5V20.0996Z" fill="#282F3A"/>
      <path d="M252.5 20.0996H275.3V53.2996H252.5V20.0996Z" fill="#282F3A"/>
      <path d="M657.9 260.4C657.9 168.2 658.2 109.8 612.6 74.0004C571.5 41.7004 428.9 30.0004 365.9 29.9004C365.833 29.9004 365.8 29.9004 365.8 29.9004C365.666 29.9004 365.533 29.9004 365.4 29.9004C365.266 29.9004 365.133 29.9004 365 29.9004C364.933 29.9004 364.9 29.9004 364.9 29.9004C301.8 30.0004 159.3 41.7004 118.2 74.0004C72.4997 109.8 72.8997 168.2 72.8997 260.4C72.8997 355.1 67.5997 581.8 68.0997 803.8V1421.9C68.0997 1447.7 88.9997 1468.5 114.7 1468.5H364.9H365H365.8C365.8 1468.5 365.833 1468.5 365.9 1468.5H616C641.8 1468.5 662.7 1447.7 662.7 1421.9V803.8C663.2 581.8 657.9 355.1 657.9 260.4Z" fill="#A29899"/>
      <path d="M633.6 292.8C633.6 154.5 626.1 174.8 592.1 140.8C558.2 106.9 423 93 365.8 93C308.6 93 155.4 108.5 127.4 147.5C107.5 175.2 110.5 367.1 111.4 420.3C129.5 460.6 139.2 527.2 146 592C138.3 602.6 133.7 623.4 133.7 645.5C123.5 675.7 131.1 749 133.7 788.3C133.9 790.5 131.9 830.7 132.1 832.9L365.8 855.6L599.5 832.9C599.9 833.7 597.9 792.2 597.9 788.3C598.1 748.9 608.1 675.7 597.9 645.5C597.9 623.4 593.3 602.6 585.6 592C592.4 527.2 602.1 460.6 620.2 420.3C629.9 372.9 633.6 324.8 633.6 292.8Z" fill="#B5AEAF"/>
      <path d="M451.9 140.4L502.7 408.9L483.5 411.9L451.9 140.4Z" fill="#A29899"/>
      <path d="M279.7 140.4L248.1 411.9L228.9 408.9L279.7 140.4Z" fill="#A29899"/>
      <path d="M365.8 344.701C365.8 344.701 219.5 342.901 111.4 420.301L146 592.001C146 592.001 205.5 542.501 365.8 542.501C526.1 542.501 585.6 592.001 585.6 592.001L620.2 420.301C512.1 342.901 365.8 344.701 365.8 344.701Z" fill="#282F3A"/>
      <path d="M133.701 788.3V638.9L94.8015 434C87.0015 507.5 86.4014 659.9 87.9014 788.3H133.701Z" fill="#282F3A"/>
      <path d="M597.902 788.3V638.9L636.902 434C644.602 507.5 645.202 659.9 643.702 788.3H597.902Z" fill="#3A454F"/>
      <path d="M585.601 592.001L620.201 420.301C512.101 342.901 365.801 344.701 365.801 344.701V542.501C526.101 542.501 585.601 592.001 585.601 592.001Z" fill="#3A454F"/>
      <path d="M76.7997 454.8L75.0996 479.8C74.8996 481.9 75.9996 484 77.6996 485.1L82.5996 488.3L87.5996 445.9L79.8996 450C78.1996 450.9 76.9997 452.8 76.7997 454.8Z" fill="#282F3A"/>
      <path d="M75.3006 471.6L8.5005 487.701C3.3005 488.901 -1.29947 484.001 0.400529 479.001C3.50053 470.101 12.4006 458.001 36.8006 451.201C61.5006 444.401 73.7005 451.901 79.6005 459.201C83.2005 463.601 80.8006 470.3 75.3006 471.6Z" fill="#B5AEAF"/>
      <path d="M658.2 454.8L660 479.8C660.1 481.9 659.1 484 657.3 485.1L652.5 488.3L647.5 445.9L655.1 450C656.9 450.9 658.1 452.8 658.2 454.8Z" fill="#282F3A"/>
      <path d="M659.801 471.6L726.601 487.701C731.701 488.901 736.401 484.001 734.601 479.001C731.501 470.101 722.701 458.001 698.301 451.201C673.601 444.401 661.301 451.901 655.401 459.201C651.901 463.601 654.201 470.3 659.801 471.6Z" fill="#B5AEAF"/>
      <path d="M601.4 1439.7H130.2C110.5 1439.7 94.5996 1423.8 94.5996 1404.1V878.301H637V1404.1C637 1423.8 621.1 1439.7 601.4 1439.7Z" fill="#B5AEAF"/>
      <path d="M585.9 1411H145.7C135.9 1411 128 1403.1 128 1393.4V850.9H603.6V1393.4C603.6 1403.1 595.7 1411 585.9 1411Z" fill="#A29899"/>
      <path d="M599.5 832.9C571.2 835.9 468.5 837.4 365.8 837.4C263.1 837.4 160.4 835.9 132.1 832.9C132.1 832.9 95.1996 869.8 94.5996 878.3C133 887.5 230.3 899 365.8 899C501.3 899 598.6 887.5 637 878.3C636.4 869.8 599.5 832.9 599.5 832.9Z" fill="#282F3A"/>
      <path d="M599.501 832.9C599.501 832.9 636.401 869.8 637.001 878.3C598.601 887.5 501.301 899 365.801 899V837.4C468.501 837.4 571.201 835.9 599.501 832.9Z" fill="#3A454F"/>
      <path d="M161.201 1411H145.701V921.6C145.701 917.3 149.101 913.9 153.301 913.9H153.501C157.701 913.9 161.201 917.3 161.201 921.6V1411Z" fill="#777071"/>
      <path d="M208.4 1411H192.9V921.6C192.9 917.3 196.3 913.9 200.5 913.9H200.7C204.9 913.9 208.4 917.3 208.4 921.6V1411Z" fill="#777071"/>
      <path d="M255.602 1411H240.102V921.6C240.102 917.3 243.502 913.9 247.702 913.9H247.902C252.102 913.9 255.602 917.3 255.602 921.6V1411Z" fill="#777071"/>
      <path d="M302.801 1411H287.301V921.6C287.301 917.3 290.701 913.9 294.901 913.9H295.101C299.301 913.9 302.801 917.3 302.801 921.6V1411Z" fill="#777071"/>
      <path d="M350.002 1411H334.502V921.6C334.502 917.3 337.902 913.9 342.102 913.9H342.302C346.502 913.9 350.002 917.3 350.002 921.6V1411Z" fill="#777071"/>
      <path d="M397.201 1411H381.701V921.6C381.701 917.3 385.101 913.9 389.301 913.9H389.501C393.701 913.9 397.201 917.3 397.201 921.6V1411Z" fill="#777071"/>
      <path d="M444.4 1411H428.9V921.6C428.9 917.3 432.3 913.9 436.5 913.9H436.7C440.9 913.9 444.4 917.3 444.4 921.6V1411Z" fill="#777071"/>
      <path d="M491.602 1411H476.102V921.6C476.102 917.3 479.502 913.9 483.702 913.9H483.902C488.102 913.9 491.602 917.3 491.602 921.6V1411Z" fill="#777071"/>
      <path d="M538.801 1411H523.201V921.6C523.201 917.3 526.701 913.9 530.901 913.9H531.101C535.301 913.9 538.801 917.3 538.801 921.6V1411Z" fill="#777071"/>
      <path d="M585.9 1411H570.4V921.6C570.4 917.3 573.9 913.9 578.1 913.9H578.3C582.5 913.9 585.9 917.3 585.9 921.6V1411Z" fill="#777071"/>
      <path d="M111.6 79.7004C115.6 83.0004 118.9 87.2004 120.9 92.0004C126 89.6004 131.1 87.1004 136.4 84.2004C159.8 71.5004 178.8 57.8004 187.8 47.9004C157.6 54.5004 132.1 63.1004 118.2 74.0004C115.9 75.8004 113.7 77.7004 111.6 79.7004Z" fill="#FFE7CC"/>
      <path d="M619.1 79.7004C617.1 77.7004 614.9 75.8004 612.6 74.0004C598.7 63.1004 573.1 54.5004 543 47.9004C551.9 57.8004 570.9 71.5004 594.4 84.2004C599.7 87.1004 604.8 89.6004 609.8 92.0004C611.8 87.2004 615.1 83.0004 619.1 79.7004Z" fill="#FFE7CC"/>
      <path d="M111.601 79.6992C103.901 86.7992 97.7008 94.7992 92.8008 103.699C101.001 100.999 110.701 96.9992 120.901 91.9992C118.901 87.1992 115.601 82.9992 111.601 79.6992Z" fill="#F2542A"/>
      <path d="M619.101 79.6992C615.101 82.9992 611.801 87.1992 609.801 91.9992C620.101 96.9992 629.701 100.999 638.001 103.699C633.001 94.7992 626.801 86.7992 619.101 79.6992Z" fill="#F2542A"/>
      <path d="M198.001 1468.5H111.301V1462.7C111.301 1457.7 115.401 1453.7 120.401 1453.7H188.901C193.901 1453.7 198.001 1457.7 198.001 1462.7V1468.5Z" fill="#A91F3E"/>
      <path d="M188.902 1453.7H178.102V1468.5H198.002V1462.7C198.002 1457.7 193.902 1453.7 188.902 1453.7Z" fill="#FFE7CC"/>
      <path d="M532.801 1468.5H619.501V1462.7C619.501 1457.7 615.401 1453.7 610.401 1453.7H541.901C536.901 1453.7 532.801 1457.7 532.801 1462.7V1468.5Z" fill="#A91F3E"/>
      <path d="M541.901 1453.7H552.701V1468.5H532.801V1462.7C532.801 1457.7 536.901 1453.7 541.901 1453.7Z" fill="#FFE7CC"/>
      <path d="M250.502 41.5996C329.602 30.6996 405.402 30.6996 484.502 41.5996C485.902 41.7996 486.802 40.8996 486.402 39.4996C486.102 38.1996 484.602 36.9996 483.202 36.7996C405.002 26.1996 330.002 26.1996 251.802 36.7996C250.402 36.9996 249.002 38.1996 248.602 39.4996C248.302 40.8996 249.102 41.7996 250.502 41.5996Z" fill="#282F3A"/>
      <path d="M485.302 44.4988C405.702 33.3988 329.402 33.3988 249.802 44.4988C248.302 44.6988 246.902 45.9988 246.502 47.3988C246.102 48.7988 247.002 49.7988 248.402 49.5988C329.002 38.1988 406.102 38.1988 486.702 49.5988C488.102 49.7988 489.002 48.7988 488.602 47.3988C488.202 45.9988 486.702 44.6988 485.302 44.4988Z" fill="#282F3A"/>
      <path d="M487.501 52.6004C406.401 41.0004 328.701 41.0004 247.601 52.6004C246.101 52.8004 244.601 54.2004 244.201 55.7004C243.801 57.2004 244.701 58.2004 246.101 58.0004C328.301 46.1004 406.801 46.1004 488.901 58.0004C490.401 58.2004 491.201 57.2004 490.801 55.7004C490.401 54.2004 488.901 52.8004 487.501 52.6004Z" fill="#282F3A"/>
    </svg>