<svg xmlns="http://www.w3.org/2000/svg" width="677" height="1307" viewBox="0 0 677 1307" fill="none">
      <path d="M609.799 253.5C612.899 116.1 607.999 78.1 573.499 42.4C539.199 6.69999 396.899 0 336.699 0C276.499 0 134.199 6.69999 99.899 42.4C65.399 78.1 60.399 109.2 63.699 253.5C74.599 451.2 39.699 1205.8 94.099 1255.3C153.699 1305 274.899 1307 336.699 1307C398.499 1307 519.699 1305 579.299 1255.3C633.799 1205.8 599.099 451.2 609.799 253.5Z" fill="#A2999A"/>
      <path d="M585.799 284.601C585.799 177.301 582.999 126.301 551.499 93.7008C520.199 61.1008 391.399 47.8008 336.699 47.8008C282.099 47.8008 153.199 61.1008 121.899 93.7008C90.4988 126.301 87.7988 178.901 87.7988 284.601C87.7988 315.401 92.4988 361.701 101.999 407.301C119.199 446.001 128.599 510.101 134.999 572.401C127.999 582.601 123.899 602.601 123.899 623.901C114.599 652.901 121.399 751.801 123.499 789.601C123.599 791.601 123.299 798.201 123.499 800.301C123.599 800.301 102.499 966.701 121.499 1046.3L127.899 1087.5C122.899 1117.5 105.199 1149.7 106.599 1158.6C106.599 1158.6 108.799 1171.8 116.299 1178.2C170.599 1223.6 280.599 1225.4 336.699 1225.4C392.799 1225.4 502.799 1223.6 557.099 1178.2C564.699 1171.8 566.899 1158.6 566.899 1158.6C568.399 1149.2 550.499 1118 545.699 1087.5L551.999 1046.3C561.399 980.201 549.999 800.301 550.099 800.301C550.199 798.201 549.899 791.601 549.999 789.601C552.099 751.801 558.899 652.901 549.699 623.901C549.699 602.601 545.599 582.601 538.499 572.401C544.899 510.101 554.399 446.001 571.499 407.301C580.999 361.701 585.199 315.401 585.799 284.601Z" fill="#C3CCC7"/>
      <path d="M413.598 400.7C417.798 399.9 421.965 399.1 426.098 398.3C415.898 328.4 405.698 287.2 395.298 219.4C394.598 214.9 390.698 211.4 386.198 211.4H287.298C282.798 211.4 278.898 214.9 278.198 219.4C267.798 287.2 257.598 328.4 247.398 398.3C251.598 399.1 255.765 399.9 259.898 400.7C265.998 332.8 274.798 291.3 280.998 227.4C281.498 222.7 285.498 219 290.198 219H382.398C387.098 219 391.098 222.7 391.598 227.4C397.898 291.3 407.598 332.8 413.598 400.7Z" fill="#A2999A"/>
      <path d="M336.8 334.499C336.8 334.499 200.9 332.799 102 407.299C113.3 462.299 124.3 517.399 135 572.399C135 572.399 189.4 524.799 336.8 524.799C484.1 524.699 538.5 572.399 538.5 572.399C549.3 517.399 560.3 462.299 571.5 407.299C472.6 332.799 336.7 334.499 336.8 334.499Z" fill="#282F3A"/>
      <path d="M123.499 789.6C123.899 731.9 123.999 675.1 123.899 617.5C111.899 551.8 99.4993 486.1 86.7993 420.4C80.5993 491.1 81.0993 666 81.3993 789.6C95.466 789.6 109.499 789.6 123.499 789.6Z" fill="#282F3A"/>
      <path d="M81.5 800.301C82.1 929.501 83.3 1098.8 83.3 1098.8C96.1 1081.33 108.833 1063.83 121.5 1046.3C122.4 983.601 123.1 863.001 123.5 800.301C109.5 800.301 95.5 800.301 81.5 800.301Z" fill="#282F3A"/>
      <path d="M550 789.6C549.7 731.9 549.6 675.1 549.7 617.5C561.7 551.8 574 486.1 586.8 420.4C592.9 491.1 592.4 666 592.1 789.6C578.1 789.6 564.066 789.6 550 789.6Z" fill="#3A454F"/>
      <path d="M592.1 800.301C591.5 929.501 590.2 1098.8 590.2 1098.8C577.4 1081.33 564.666 1063.83 552 1046.3C551.1 983.601 550.5 863.001 550.1 800.301C564.1 800.301 578.1 800.301 592.1 800.301Z" fill="#3A454F"/>
      <path d="M545.7 1087.5C495.2 1097 178.3 1097 127.9 1087.5C127.9 1087.5 102.9 1130.5 106.6 1158.6C140.7 1172.8 213.9 1190.9 336.7 1190.9C459.6 1190.9 532.8 1172.8 566.9 1158.6C570.6 1130.5 545.6 1087.5 545.7 1087.5Z" fill="#282F3A"/>
      <path d="M538.499 572.399C549.299 517.399 560.299 462.299 571.499 407.299C472.599 332.799 336.699 334.499 336.799 334.499C336.799 397.899 336.799 461.333 336.799 524.799C484.099 524.799 538.499 572.399 538.499 572.399Z" fill="#3A454F"/>
      <path d="M545.699 1087.5C543.966 1087.83 542.133 1088.13 540.199 1088.4C539.599 1088.5 538.999 1088.5 538.399 1088.6C537.299 1088.7 536.199 1088.9 534.999 1089C500.299 1092.8 418.599 1094.6 336.799 1094.6C336.733 1126.73 336.699 1158.83 336.699 1190.9C459.599 1190.9 532.799 1172.8 566.899 1158.6C570.599 1130.5 545.599 1087.5 545.699 1087.5Z" fill="#3A454F"/>
      <path d="M336.698 1287.6C364.198 1287.6 403.498 1287.2 443.998 1282.4C443.798 1281.4 443.598 1280.43 443.398 1279.5C441.598 1270.9 433.498 1264.6 425.198 1265C366.298 1268.1 307.098 1268.1 248.198 1265C239.898 1264.6 231.798 1270.9 229.998 1279.5C229.798 1280.43 229.598 1281.4 229.398 1282.4C269.898 1287.2 309.198 1287.6 336.698 1287.6Z" fill="#C3CCC7"/>
      <path d="M194.399 1290.5C194.399 1290.43 194.433 1290.37 194.499 1290.3C195.799 1284.6 192.299 1278.9 186.699 1277.6C169.766 1273.53 152.999 1268.8 136.399 1263.4C130.899 1261.5 124.799 1264.5 122.799 1270C122.733 1270.07 122.699 1270.13 122.699 1270.2C122.299 1271.3 122.299 1272.3 122.199 1273.3C142.699 1283.6 166.499 1290.7 191.299 1295.7C192.699 1294.3 193.899 1292.6 194.399 1290.5Z" fill="#DD3E3E"/>
      <path d="M550.6 1270C548.6 1264.5 542.5 1261.5 537 1263.4C520.466 1268.8 503.733 1273.53 486.8 1277.6C481.1 1278.9 477.6 1284.6 478.9 1290.3C478.966 1290.37 479 1290.43 479 1290.5C479.5 1292.6 480.7 1294.3 482.1 1295.7C506.9 1290.7 530.7 1283.6 551.2 1273.3C551.1 1272.3 551.1 1271.3 550.7 1270.2C550.7 1270.13 550.666 1270.07 550.6 1270Z" fill="#DD3E3E"/>
      <path d="M70.4992 440.4C70.0325 448.4 69.5992 456.434 69.1992 464.5C68.9992 466.5 69.9992 468.5 71.5992 469.6C73.1325 470.6 74.6325 471.6 76.0992 472.6C77.4992 459 78.8992 445.434 80.2992 431.9C77.9658 433.167 75.6325 434.467 73.2992 435.8C71.6992 436.7 70.5992 438.5 70.4992 440.4Z" fill="#282F3A"/>
      <path d="M69.2993 456.6C48.8326 461.733 28.3993 466.9 7.99927 472.1C3.19927 473.3 -1.10073 468.5 0.399266 463.7C3.19927 455.2 11.0993 443.5 33.5993 437C56.1993 430.4 67.5993 437.6 73.0993 444.7C76.4993 448.9 74.2993 455.3 69.2993 456.6Z" fill="#A2999A"/>
      <path d="M606.198 440.4C606.665 448.4 607.132 456.434 607.598 464.5C607.698 466.5 606.698 468.5 605.098 469.6C603.565 470.6 602.065 471.6 600.598 472.6C599.198 459 597.798 445.434 596.398 431.9C598.732 433.167 601.065 434.467 603.398 435.8C605.098 436.7 606.098 438.5 606.198 440.4Z" fill="#282F3A"/>
      <path d="M607.499 456.6C627.899 461.733 648.332 466.9 668.799 472.1C673.499 473.3 677.899 468.5 676.299 463.7C673.599 455.2 665.599 443.5 643.199 437C620.499 430.4 609.099 437.6 603.599 444.7C600.299 448.9 602.399 455.3 607.499 456.6Z" fill="#A2999A"/>
      <path d="M194.398 1290.5C194.398 1290.43 194.432 1290.37 194.498 1290.3C195.798 1284.6 192.298 1278.9 186.698 1277.6C182.498 1276.6 178.298 1275.4 174.098 1274.3C173.565 1279.97 172.998 1285.67 172.398 1291.4C178.598 1293 184.898 1294.43 191.298 1295.7C192.698 1294.3 193.898 1292.6 194.398 1290.5Z" fill="#FFA312"/>
      <path d="M478.898 1290.3C478.965 1290.37 478.998 1290.43 478.998 1290.5C479.498 1292.6 480.698 1294.3 482.098 1295.7C488.498 1294.43 494.798 1293 500.998 1291.4C500.398 1285.67 499.831 1279.97 499.298 1274.3C495.098 1275.4 490.998 1276.6 486.798 1277.6C481.098 1278.9 477.598 1284.6 478.898 1290.3Z" fill="#FFA312"/>
      <path d="M64.0984 780.799C64.0984 780.799 64.0651 780.799 63.9984 780.799C61.4984 780.799 59.3984 778.599 59.3984 775.999C59.4651 766.333 59.4984 756.699 59.4984 747.099C59.4984 744.399 61.5984 742.199 64.0984 742.199C64.1651 742.199 64.1984 742.199 64.1984 742.199C66.7984 742.199 68.7984 744.399 68.7984 747.099C68.7984 756.699 68.7984 766.333 68.7984 775.999C68.6984 778.599 66.6984 780.799 64.0984 780.799Z" fill="#282F3A"/>
      <path d="M63.3987 847.6C63.3321 847.6 63.2987 847.6 63.2987 847.6C60.6987 847.6 58.5987 845.4 58.6987 842.8C58.7654 833.133 58.8321 823.5 58.8987 813.9C58.9987 811.2 61.0988 809 63.5988 809C63.6654 809 63.6987 809 63.6987 809C66.2987 809 68.2987 811.2 68.2987 813.9C68.2321 823.5 68.1321 833.133 67.9987 842.8C67.9987 845.4 65.8987 847.6 63.3987 847.6Z" fill="#282F3A"/>
      <path d="M609.499 780.799C609.499 780.799 609.466 780.799 609.399 780.799C606.899 780.799 604.799 778.599 604.799 775.999C604.733 766.333 604.699 756.699 604.699 747.099C604.699 744.399 606.799 742.199 609.299 742.199C609.366 742.199 609.399 742.199 609.399 742.199C611.999 742.199 614.099 744.399 614.099 747.099C614.099 756.699 614.099 766.333 614.099 775.999C614.199 778.599 612.099 780.799 609.499 780.799Z" fill="#282F3A"/>
      <path d="M610.299 847.6C610.233 847.6 610.199 847.6 610.199 847.6C607.599 847.6 605.499 845.4 605.499 842.8C605.433 833.133 605.333 823.5 605.199 813.9C605.199 811.2 607.299 809 609.799 809C609.866 809 609.899 809 609.899 809C612.499 809 614.599 811.2 614.599 813.9C614.666 823.5 614.766 833.133 614.899 842.8C614.899 845.4 612.799 847.6 610.299 847.6Z" fill="#282F3A"/>
      <path d="M452.599 661.099H224.099C218.499 614.399 220.299 629.299 214.699 582.599C295.999 563.399 380.699 563.399 461.999 582.599C456.399 629.299 458.199 614.399 452.599 661.099Z" fill="#282F3A"/>
      <path d="M452.598 661.099C458.198 614.399 456.398 629.299 461.998 582.599C421.398 572.999 379.898 568.199 338.398 568.199V661.099H452.598Z" fill="#3A454F"/>
      <path d="M95.0996 47.6C102.8 51 109 58.7 112.2 68.8C111 69.9333 109.866 71 108.8 72C114.1 67.1 120.1 60.6 127.3 54.1C145.4 37.8 164 27.2 156.9 17C131.4 23.1 110.5 31.4 99.8996 42.4C98.2329 44.1333 96.6329 45.8667 95.0996 47.6Z" fill="#BDD6DB"/>
      <path d="M95.0997 47.5996C91.0997 52.0996 87.4997 56.6996 84.2997 61.4996C84.2331 61.8329 84.1997 62.1663 84.1997 62.4996C84.0664 63.7663 84.0331 64.9663 84.0997 66.0996C84.0997 66.5996 84.0997 67.1996 84.1997 67.7996C84.3331 69.2663 84.6664 70.6663 85.1997 71.9996C85.3331 72.3996 85.4997 72.7996 85.6997 73.1996C86.2997 74.6996 87.0997 75.9996 88.0997 77.1996C88.8997 77.9996 89.5997 78.5996 90.3997 79.0996C90.5997 79.2329 90.8331 79.3663 91.0997 79.4996C91.6997 79.8329 92.2997 80.0663 92.8997 80.1996C93.0997 80.2996 93.2997 80.2996 93.4997 80.3996C94.2997 80.5329 95.0997 80.5329 95.8997 80.3996C96.0331 80.3329 96.1997 80.2996 96.3997 80.2996C97.0664 80.0996 97.7664 79.8663 98.4997 79.5996C98.7664 79.4663 98.9997 79.3663 99.1997 79.2996C100.066 78.8996 100.933 78.3996 101.8 77.7996C101.866 77.7996 101.9 77.7663 101.9 77.6996C102.9 77.0329 103.9 76.2996 104.9 75.4996C105.1 75.2996 105.333 75.0996 105.6 74.8996C106.466 74.1663 107.333 73.3996 108.2 72.5996C108.4 72.3996 108.6 72.1996 108.8 71.9996C109.866 70.9996 111 69.9329 112.2 68.7996C109 58.6996 102.8 50.9996 95.0997 47.5996Z" fill="#EC9100"/>
      <path d="M546.201 54.1C553.401 60.6 559.501 67.1 564.701 72C563.634 71 562.501 69.9333 561.301 68.8C564.501 58.8 570.701 51.1 578.301 47.6C576.767 45.8667 575.167 44.1333 573.501 42.4C562.901 31.4 542.101 23.2 516.601 17C509.601 27.2 528.201 37.8 546.201 54.1Z" fill="#BDD6DB"/>
      <path d="M578.299 47.5996C570.699 51.0996 564.499 58.7996 561.299 68.7996C562.499 69.9329 563.632 70.9996 564.699 71.9996C564.899 72.1996 565.099 72.3996 565.299 72.5996C566.232 73.3996 567.099 74.1663 567.899 74.8996C568.166 75.0996 568.432 75.2996 568.699 75.4996C569.699 76.2996 570.665 77.0329 571.599 77.6996C571.665 77.7663 571.699 77.7996 571.699 77.7996C572.566 78.3996 573.432 78.8996 574.299 79.2996C574.565 79.3663 574.799 79.4663 574.999 79.5996C575.732 79.8663 576.432 80.0996 577.099 80.2996C577.299 80.2996 577.465 80.3329 577.599 80.3996C578.465 80.5329 579.299 80.5329 580.099 80.3996C580.299 80.2996 580.399 80.2996 580.599 80.1996C581.265 80.0663 581.899 79.8329 582.499 79.4996C582.699 79.3663 582.899 79.2329 583.099 79.0996C583.899 78.5996 584.599 77.9996 585.399 77.1996C586.499 75.9996 587.199 74.6996 587.899 73.1996C588.032 72.7996 588.199 72.3996 588.399 71.9996C588.866 70.6663 589.199 69.2663 589.399 67.7996C589.399 67.1996 589.399 66.5996 589.499 66.0996C589.499 64.9663 589.466 63.7663 589.399 62.4996C589.332 62.4996 589.299 62.4663 589.299 62.3996C586.099 57.1996 582.499 52.3996 578.299 47.5996Z" fill="#EC9100"/>
    </svg>